<svg width="100" height="100" viewBox="0 0 100 100" fill="none" xmlns="http://www.w3.org/2000/svg">
<rect x="2" y="2" width="96" height="96" rx="48" fill="#1F2025" stroke="#D3D3D3" stroke-width="4"/>
<path d="M43.9942 27H68.1307C70.5784 27 71.9959 29.7733 70.5622 31.7572L67.1749 36.4445C66.6108 37.225 65.7064 37.6874 64.7433 37.6874H49.993C48.7618 37.6874 47.6556 38.4396 47.203 39.5847L45.7344 43.3004C44.9562 45.2693 46.4073 47.4031 48.5244 47.4031H52.5609C55.2126 47.4031 56.5604 50.5911 54.713 52.4933L50.6322 56.6949C50.0673 57.2765 49.291 57.6047 48.4802 57.6047H44.979C43.5749 57.6047 42.3587 58.5785 42.0516 59.9486L40.7831 65.609C40.6583 66.1658 40.3773 66.6754 39.9731 67.0782L34.2619 72.7684C32.0649 74.9573 28.3964 72.7808 29.2644 69.8035L41.1142 29.1603C41.4874 27.8801 42.6608 27 43.9942 27Z" stroke="#D3D3D3" stroke-width="3"/>
</svg>
