<svg width="61" height="63" viewBox="0 0 61 63" fill="none" xmlns="http://www.w3.org/2000/svg">
<path d="M21.4715 2H55.119C57.6188 2 59.0221 4.87812 57.4825 6.84762L52.1165 13.712C51.5479 14.4394 50.6761 14.8644 49.7529 14.8644H29.3366C28.1355 14.8644 27.0502 15.5807 26.5781 16.6851L24.1433 22.38C23.2971 24.3593 24.7492 26.5593 26.9018 26.5593H35.0926C37.8012 26.5593 39.1229 29.865 37.161 31.7324L30.5633 38.012C30.0056 38.5429 29.265 38.839 28.495 38.839H22.7161C21.3315 38.839 20.1268 39.7866 19.8006 41.1322L17.9862 48.6162C17.8465 49.1925 17.5392 49.7144 17.1031 50.1161L7.05092 59.3747C4.79022 61.4569 1.23296 59.1969 2.15741 56.2657L18.6104 4.09766C19.0042 2.84904 20.1622 2 21.4715 2Z" stroke="currentColor" stroke-width="4"/>
</svg>
