<svg width="12" height="19" viewBox="0 0 12 19" fill="none" xmlns="http://www.w3.org/2000/svg">
<path d="M1.14974 0.5H10.8492C11.3619 0.5 11.6726 1.08896 11.3974 1.53903L9.95023 3.90526C9.83096 4.10027 9.62422 4.21836 9.40207 4.21836H4.56085C4.20201 4.21836 3.91111 4.52104 3.91111 4.89442V6.92262C3.91111 7.296 4.20201 7.59868 4.56085 7.59868H6.73572C7.22409 7.59868 7.53788 8.1383 7.31127 8.58845L6.20518 10.7857C6.09303 11.0084 5.87131 11.148 5.62962 11.148H4.56085C4.20201 11.148 3.91111 11.4507 3.91111 11.8241V13.8469C3.91111 13.9613 3.88322 14.0738 3.83005 14.1739L1.71841 18.1498C1.39375 18.7611 0.5 18.5212 0.5 17.8228V1.17607C0.5 0.802685 0.790897 0.5 1.14974 0.5Z" fill="#2563EB" stroke="#1F2025"/>
</svg>
